<svg viewBox="0 0 70 70" width="512" height="512" xmlns="http://www.w3.org/2000/svg">
<g clip-rule="evenodd" fill-rule="evenodd">

<g transform="translate(-3.5, 22)">
<path d="m38.432 9.747c-2.658 2.658-5.264 6.225-5.93 9.938-1.206 6.729-2.979 12.014-8.093 10.762-11.97-9.461 5.902-16.579 5.902-16.579s4.259-5.746 6.384-7.068c-19.302-6.16-36.794 8.63-28.085 22.967 4.669 7.688 13.097 10.066 21.463 8.919 4.18-.574 7.593-4.983 9.911-8.082.867-1.158 1.713-2.255 2.451-3.479.803-.057 3.261-18.381 14.01-6.113 3.041 8.927-8.024 10.087-8.024 10.087s-1.694 3.848-2.534 5.671c1.6 3.27 5.676 5.618 9.169 5.646 2.003.016 4.156-.303 5.877-1.429.987-.621 1.922-1.316 2.803-2.086.899-.763.885-.813-.043-.153 3.627-2.776 7.654-4.993 7.555-9.682-.621-29.318-24.891-27.245-32.816-19.319z" fill="#fff"/>

<g fill="#9FC9D3"><path d="m46.701 25.014c0-2.463 1.983-4.459 4.429-4.459 2.448 0 4.431 1.996 4.431 4.459 0 2.462-1.983 4.458-4.431 4.458-2.446 0-4.429-1.996-4.429-4.458zm-16.256 4.589c1.142-1.182 1.851-2.759 1.851-4.545 0-10.489 8.42-18.963 18.842-18.963 10.387 0 18.786 8.471 18.786 18.925 0 .218-.017.45-.017.668l-2.082-1.663c-.509-8.837-7.79-15.861-16.695-15.861-9.275 0-16.771 7.519-16.771 16.854 0 3.481-2.043 6.545-5.01 7.866-1.08.481-2.314.787-3.578.787-4.229 0-7.749-3.076-8.458-7.13l1.93-1.522c0 3.635 2.917 6.57 6.528 6.57 1.048 0 2.052-.249 2.931-.684.647-.325 1.234-.774 1.743-1.302zm-15.375-3.216c.695 5.328 5.22 9.475 10.699 9.475 1.558 0 3.067-.35 4.411-.939 3.761-1.653 6.36-5.504 6.36-9.903 0-8.123 6.52-14.661 14.589-14.661 7.64 0 13.886 5.932 14.488 13.466l-1.837 1.195c0-7.051-5.66-12.75-12.651-12.75-7.02 0-12.687 5.683-12.687 12.749 0 5.126-3.046 9.543-7.372 11.585-1.587.75-3.435 1.168-5.301 1.168-6.976 0-12.671-5.669-12.671-12.674v-.078zm15.961-12.955c-1.604-.761-3.379-1.165-5.262-1.165-7.007 0-12.671 5.701-12.671 12.752l-1.852-1.212c.618-7.533 6.882-13.45 14.523-13.45 2.253 0 4.382.512 6.281 1.429.432-.606.879-1.196 1.343-1.755-2.284-1.196-4.878-1.863-7.624-1.863-8.921 0-16.221 7.02-16.715 15.889l-2.084 1.646c0-.233-.015-.45-.015-.684 0-10.454 8.426-18.935 18.813-18.935 3.287 0 6.388.854 9.074 2.362.585-.576 1.204-1.133 1.852-1.646-3.194-1.957-6.929-3.06-10.925-3.06-11.683 0-21.143 9.521-21.143 21.28s9.46 21.279 21.143 21.279c3.996 0 7.75-1.105 10.929-3.047 4.835-2.952 8.395-7.855 9.656-13.583 1.197 1.229 2.87 1.978 4.715 1.978 3.64 0 6.59-2.971 6.59-6.633l1.876 1.435c-.68 4.07-4.198 7.177-8.427 7.177-1.266 0-2.454-.279-3.535-.762-.246.716-.525 1.414-.848 2.082 1.342.59 2.824.916 4.383.916 5.463 0 9.971-4.101 10.68-9.397l1.991-1.398c0 7.022-5.695 12.706-12.671 12.706-1.883 0-3.694-.425-5.3-1.154-1.465 2.566-3.37 4.795-5.661 6.625 3.196 1.943 6.965 3.057 10.961 3.057 11.667 0 21.128-9.521 21.128-21.279s-9.435-21.318-21.103-21.318c-7.859 0-14.695 4.283-18.357 10.676-.554-.377-1.143-.669-1.745-.948zm-9.69 11.59c0-2.462 1.983-4.459 4.431-4.459 2.446 0 4.429 1.997 4.429 4.459s-1.983 4.459-4.429 4.459c-2.448 0-4.431-1.997-4.431-4.459z"/>

</g>

</g>

<g>
	<!-- "Shadow" -->
	
	<g fill="#FFFFFF" stroke="#FFFFFF" stroke-width="5" stroke-linejoin="round">
		<path d="M 33 39 L 35 69 L 37 39"/>
		<path d="M 29 39 L 22 67.5 L 33 39" />
		<path d="M 37 39 L 48 67.5 L 41 39" />
	</g>
	
	<rect x="26" y="39" width="18" height="4" fill="#none" rx="1" stroke-width="3" stroke="#FFFFFF"/>
	<rect x="22" y="12" width="26" height="28" fill="none" rx="4" stroke-width="3" stroke="#FFFFFF"/>

	<!-- Shape -->

	<g fill="#BBBBBB" stroke="#444444" stroke-width="2">
		<path d="M 33 39 L 35 69 L 37 39"/>
		<path d="M 29 39 L 22 67.5 L 33 39" />
		<path d="M 37 39 L 48 67.5 L 41 39" />
	</g>
	<path d="M 24 16 L 24 13 L 28 4 L 42 4 L 46 13 L 46 16" stroke="#E57E25" stroke-width="4" stroke-linejoin="round" fill="none"/>
	<rect x="26" y="39" width="18" height="4" fill="#E57E25" rx="1"/>
	<rect x="22" y="12" width="26" height="28" fill="#F0C419" rx="4"/>
	<circle cx="35" cy="26" r="6" fill="#9FC9D3" stroke="#464F5D" stroke-width="2"/>
</g>

</g>

</svg>
